Patient4_TMGait_0pt4_02_left_42_EMG.mot
version=1
nRows=40
nColumns=33
inDegrees=no
endheader
time	1LAddLong	2LGlutMax	3LGlutMed	4LIliopsoas	5LSemiMemb	6LBicFemLong	7LRecFem	8LVastMed	9LVastLat	10LGasMed	11LTibAnt	12lTibPost	13LPeroneusLong	14LSol	15LExtDigLong	16LFlexDigLong	17RAddLong	18RGlutMax	19RGlutMed	20RIliopsoas	21RSemiMemb	22RBicFemLong	23RRecFem	24RVastMed	25RVastLat	26RGasMed	27RTibAnt	28RTibPost	29RPeroneusLong	30RSol	31RExtDigLong	32RFlexDigLong
56.43	-0.004578	-0.16495	-0.11292	-0.007324	0.000305	-0.022736	-0.43137	-0.002289	-0.22812	0.014343	-0.14664	0.00412	0.083313	-0.050812	-0.12665	-0.000305	0.014038	-0.12329	0.1152	0.16403	-0.053711	-0.02533	0.30365	-0.054626	0.033417	-0.018005	0.006256	-0.004578	-0.15839	-0.14496	-0.002899	-0.01709
56.431	-0.008545	-0.13809	-0.005951	-0.011139	-0.090942	0.003204	-0.37018	-0.008392	-0.33341	0.057678	-0.081024	-0.006256	0.06485	-0.076294	0.159	0.002899	0.041046	-0.14954	0.002594	0.1384	-0.054474	0.004578	0.29175	-0.076599	0.022278	-0.017395	0.10056	-0.001831	0.036621	0.000763	-0.000458	-0.003357
56.432	0.003662	-0.11154	0.066071	-0.008087	-0.12955	0.037842	-0.48019	-0.00473	-0.34058	0.032806	-0.11078	-0.010529	-0.003052	-0.11581	0.31036	-0.005493	0.016785	-0.12314	0.048523	0.091705	-0.053253	0.033569	0.35568	-0.08728	0.021362	-0.008392	0.3421	-0.003204	0.003052	0.090179	-0.007477	0.000153
56.433	0.013733	-0.027924	0.26688	0.003662	-0.12756	0.11566	-0.63232	0.002594	-0.15366	0.00473	-0.069427	-0.014191	0.011292	-0.093384	0.34622	-0.015259	0.02655	-0.18326	0.18249	0.066376	-0.013275	0.072327	0.34393	-0.090637	0.02182	-0.002747	0.020599	-0.007172	-0.21545	0.14771	-0.002441	0.000763
56.434	0.016479	-0.030365	0.082703	0.036011	-0.08194	0.12924	-0.63263	0.025024	-0.008392	-0.037079	-0.014801	-0.010529	0.020752	-0.084076	-0.12894	-0.023956	0.022736	-0.1503	0.21698	0.065308	-0.035858	0.029449	0.32532	-0.077057	0.027618	0.007324	0.11353	-0.00885	-0.38864	0.10788	-0.001373	-0.007782
56.435	0.016479	-0.04364	-0.023804	0.00412	0.08194	0.13184	-0.6218	0.026245	0.079651	-0.062714	0.018768	-0.016174	-0.049591	-0.067596	-0.15121	-0.018005	0.000763	-0.15366	0.26886	0.10681	-0.046234	0.00473	0.33981	-0.10239	0.01236	0.004272	0.020294	-0.003662	-0.51041	0.014954	-0.002747	0.002289
56.436	0.01297	-0.04776	-0.062256	-0.026245	0.14572	0.11719	-0.59311	0.008698	0.077667	-0.097198	0.069275	-0.028839	-0.016479	-0.084991	-0.087128	-0.006561	-0.055695	-0.13214	0.21835	0.11139	-0.018311	0.027771	0.34332	-0.048523	0.007629	0.006256	0.13825	-0.003204	-0.21332	-0.029144	-0.002441	-0.008698
56.437	0.012817	-0.10605	-0.16235	-0.013275	0.0354	0.09552	-0.63141	-0.003967	0.058441	-0.097809	0.045166	-0.039063	0.037537	-0.094757	-0.12222	-0.023651	-0.054169	-0.18478	0.13016	0.062256	0.007019	0.016327	0.34607	-0.051727	-0.001068	-0.005341	0.51071	-0.006866	-0.14954	0.078888	-0.001373	-0.01236
56.438	0.007019	-0.077667	-0.14938	-0.003967	0.037842	0.10849	-0.522	-0.040131	0.11398	-0.034485	0.014038	-0.030975	0.037231	-0.089417	-0.14801	-0.027771	-0.032349	-0.12894	0.19989	-0.041504	-0.024872	-0.004883	0.32349	-0.10742	-0.007782	-0.006104	0.56397	-0.004578	0.14938	0.15182	-0.008545	-0.00885
56.439	-0.001068	-0.092316	-0.060272	0.007477	0.022278	0.15411	-0.47455	-0.014191	0.078583	0.019073	-0.003357	-0.027924	0.046539	-0.1033	-0.13092	-0.022278	-0.003815	-0.12589	0.3508	-0.12802	-0.032349	0.011139	0.30395	-0.10193	-0.004425	-0.002136	0.27206	-0.005493	0.35049	-0.12405	-0.001831	-0.008087
56.44	-0.014648	-0.049744	0.018005	-0.006561	0.032196	0.20767	-0.4451	0.014191	0.055084	0.064087	0.044098	-0.040588	0.022888	-0.042725	-0.056763	-0.018463	0.050354	-0.1767	0.22995	-0.20783	-0.028381	-0.007172	0.30243	-0.11108	0.002747	0.006409	-0.29022	-0.002899	0.46722	-0.32852	-0.004578	0.004578
56.441	-0.003815	0.016937	0.003357	-0.005341	0.0383	0.010681	-0.46982	0.021515	0.032196	0.064697	0.073547	-0.012665	-0.012207	0.015106	0.014191	-0.008087	0.094757	-0.17441	0.068359	-0.21149	-0.030823	-0.01297	0.30487	-0.11368	-0.012817	0.006409	-0.69824	-0.007782	0.43427	-0.37354	-0.008087	-0.002747
56.442	0.00473	0.051575	0.10132	0.002747	0.025177	-0.042419	-0.53802	0.00824	0.19852	0.02121	-0.012817	-0.040741	0.040436	0.030212	0.049591	0.003052	0.1088	-0.26489	0.059509	-0.10284	-0.038147	-0.028992	0.30518	-0.093384	-0.022278	0.006256	-0.45136	-0.002594	0.28153	-0.23239	-0.005341	-0.003815
56.443	0.019989	0.05249	0.042572	-0.023346	-0.015411	0.067291	-0.57709	-0.022125	0.23544	0.014801	-0.080872	-0.035248	0.064087	0.015717	0.12604	-0.002441	0.14938	-0.26169	0.10452	0.06546	-0.029297	-0.036163	0.25757	-0.053101	-0.002441	0.014038	-0.017242	-0.005035	-0.12161	-0.21927	-0.002136	-0.011597
56.444	0.016479	0.078583	-0.029907	-0.023804	-0.045624	0.091705	-0.67673	-0.011597	0.27939	-0.021667	-0.079346	-0.033417	0.0383	-0.043945	0.17471	-0.014648	0.13275	-0.28122	0.16068	0.05722	-0.02243	0.019684	0.23331	0.008087	-0.007019	0.015411	-0.61447	-0.006866	-0.26901	-0.34042	0.001068	-0.006409
56.445	0.010071	0.072327	-0.093842	0.011597	-0.074158	-0.008392	-0.67047	-0.024414	0.31494	-0.031433	-0.075226	-0.043488	0.040588	-0.026703	0.12039	-0.000916	0.11368	-0.31967	0.16342	0.038605	0.002136	0.062561	0.19577	0.029907	-0.011749	0.01297	-0.7309	-0.005646	-0.025024	-0.2861	-0.006256	-0.010071
56.446	0.000305	0.075073	-0.047607	0.017548	-0.11414	-0.13062	-0.65048	-0.029297	0.31448	-0.0383	-0.070648	-0.030975	0.034485	-0.020752	0.080719	-0.010681	0.11597	-0.27725	0.33524	0.020142	0.026245	0.1535	0.22263	0.050049	0.002899	0.011597	-0.64392	-0.008392	0.13489	-0.14236	-0.002441	-0.00824
56.447	0.007172	0.075836	-0.011139	0.006561	-0.13718	-0.03479	-0.52139	-0.011902	0.19348	-0.034485	-0.057068	-0.017548	0.065613	0.04425	0.0737	-0.006256	0.11276	-0.25833	0.29282	0.037994	0.02243	0.13565	0.19989	0.028076	-0.010529	0.009918	-0.2829	-0.002594	0.13016	0.071869	-0.006714	-0.012665
56.448	0.020294	0.08194	-0.01236	-0.021057	-0.093994	0.06485	-0.44632	0.018311	-0.081787	0.000153	-0.030365	-0.027771	-0.031738	0.12711	0.07843	-0.000305	0.054016	-0.21652	0.092316	0.048981	0.01709	0.12543	0.20264	0.045319	-0.00351	0.007477	-0.23392	-0.005341	0.19302	0.24948	-0.005798	-0.006561
56.449	0.031128	0.078583	-0.013275	0.003204	-0.038757	0.12634	-0.46524	0.035553	-0.33112	-0.00824	-0.041656	-0.025177	0.84228	0.12558	0.059814	0.00885	0.037384	-0.23682	0.15396	0.052643	0.01236	0.10971	0.19318	0.038605	0.003662	0.000153	-0.14206	-0.009003	0.28275	0.21759	-0.00473	-0.005951
56.45	0.025177	0.079346	-0.040131	0.001984	0.006409	0.11871	-0.4773	0.034943	-0.30991	-0.009308	-0.069275	-0.02121	1.4789	0.11017	0.069885	0.006561	0.023499	-0.23254	0.0737	0.075073	0.007935	0.1059	0.21942	0.052795	0.001373	-0.007935	-0.12573	-0.005951	0.27405	0.12604	-0.007019	-0.004272
56.451	0.020447	0.097351	0.02594	-0.020905	0.070801	0.19348	-0.47394	0.03418	-0.089417	0.059967	-0.065002	-0.03006	-0.4393	0.11643	0.039368	0.011292	-0.015106	-0.15213	-0.043945	0.000153	0.014496	0.085602	0.2121	0.013885	-0.005341	0.001221	-0.12787	-0.00885	0.21378	0.12482	-0.002899	-0.003204
56.452	0.015106	0.14358	-0.056152	0.001678	0.060577	0.35629	-0.52506	0.014496	-0.010376	0.022888	-0.10605	-0.030212	-0.7544	0.050201	-0.16434	0.01358	-0.063324	-0.13718	-0.1358	-0.028687	0.041351	0.086975	0.19653	0.028534	0.004883	-0.007629	-0.14435	-0.003357	0.12421	0.11292	-0.005951	0.009155
56.453	0.00061	0.13962	-0.013275	0.007477	0.058136	0.41672	-0.42252	-0.015106	-0.064392	-0.01236	-0.097656	-0.011139	-0.087585	0.022736	0.2243	0.010376	-0.090485	-0.13306	-0.051575	-0.062561	0.045013	0.039673	0.21881	0.01709	0.000458	0.000305	-0.038147	-0.005188	0.047455	0.11688	-0.007782	-0.006714
56.454	-0.005493	0.23468	0.041809	-0.011597	0.006256	0.34759	-0.27359	-0.023956	-0.043335	-0.039063	-0.049286	-0.013275	0.47531	0.012054	-0.00885	0.009613	-0.088959	-0.11536	0.01297	-0.12161	0.057983	-0.02655	0.18875	0.006256	-0.028687	-0.002136	-0.008087	-0.002747	-0.0177	0.12222	0.002136	-0.002441
56.455	-0.014343	0.30594	-0.12299	-0.007782	-0.037231	-0.19836	-0.15182	-0.010834	-0.13321	-0.006714	0.000305	-0.040283	0.071259	-0.089874	0.20081	0.004272	-0.062103	-0.083771	0.000153	-0.09964	0.026398	-0.035706	0.22263	-0.018616	-0.030365	-0.001373	0.035553	-0.008545	-0.18127	0.059662	-0.005951	-0.015869
56.456	-0.007172	0.36667	-0.14648	0.001068	-0.019073	-0.43045	-0.10773	-0.013733	-0.16693	-0.007019	-0.095673	-0.025635	-0.17258	0.045319	-0.068054	0.005035	-0.052948	-0.082703	0.042114	-0.21332	0.007324	-0.02655	0.18707	0.039368	-0.043182	0.00473	0.029602	-0.003357	-0.24643	0.06546	-0.005646	-0.020905
56.457	0.014343	0.38666	0.050964	-0.009613	-0.029297	-0.14832	-0.074921	-0.003052	-0.14069	0.005646	-0.066528	-0.037384	-0.12894	0.00061	-0.15549	0.007324	-0.013275	-0.088501	-0.023804	-0.17258	-0.00061	-0.030365	0.18219	-0.014038	-0.052185	0.003815	0.019989	-0.000305	-0.25925	0.093994	-0.005646	-0.015106
56.458	0.032806	0.36972	0.26443	-0.005341	-0.083466	0.028229	-0.04303	0.003967	-0.074158	-0.030518	-0.032806	-0.017548	0.24262	-0.078735	0.035706	-0.008545	0.039215	-0.079651	-0.011139	-0.16525	-0.005951	-0.051727	0.18097	-0.041046	-0.047302	0.002136	-0.017548	-0.001678	-0.2507	0.031586	-0.004883	-0.015411
56.459	0.034332	0.3122	0.40863	0.001678	-0.010223	-0.041504	-0.045929	-0.005951	-0.036926	-0.007019	0	-0.007629	-0.42328	0.066833	-0.033875	0.00473	0.033722	-0.021667	0.019989	-0.14664	-0.017548	-0.049133	0.17014	-0.013275	-0.042267	-0.000305	0.015411	0.002289	-0.23789	-0.06546	-0.001984	-0.013275
56.46	0.012207	0.30258	0.20355	0.012665	0.10376	-0.006714	-0.065155	-0.003815	-0.020142	-0.020447	0.075226	-0.006409	-0.68756	0.13367	-0.15503	0.0177	0.016937	-0.01236	-0.055389	-0.036621	-0.015717	-0.054626	0.18692	-0.021057	-0.049744	-0.010986	0.047302	0.000153	-0.15564	-0.064087	-0.006866	-0.008087
56.461	0.005188	0.26504	-0.026245	-0.001526	0.10971	0.1413	-0.045929	0	-0.0177	-0.053711	0.15015	-0.008698	-0.29556	0.072632	-0.27634	0.021973	0.021057	0.009766	-0.14084	0.057831	-0.025482	-0.061646	0.19608	-0.059204	-0.042114	-0.015106	0.103	-0.001984	-0.047302	-0.042114	-0.004425	-0.007935
56.462	-0.003662	0.12436	-0.18387	-0.027771	0.056152	0.14008	-0.040741	0.00824	-0.001678	-0.069885	0.14603	-0.03067	-0.30807	0.047455	-0.30441	0.001373	-0.008087	0.032654	-0.17944	0.015411	-0.037689	-0.066528	0.1918	-0.06546	-0.055389	-0.00824	0.090027	-0.006409	0.090179	0.005493	-0.005798	-0.014038
56.463	-0.00824	0.019836	-0.12863	-0.019989	0.037231	0.074615	-0.010986	0.00412	0.096741	-0.081787	0.13245	-0.02243	0.041046	-0.072021	-0.22507	0.00946	-0.0177	-0.01358	-0.20386	-0.03479	-0.041199	-0.078278	0.16205	-0.079498	-0.043793	-0.000763	0.020752	-0.002136	0.20844	0.044098	-0.010834	-0.014954
56.464	0.009613	-0.046082	0.16068	-0.005798	0.006104	-0.05188	-0.036316	-0.001221	0.054474	-0.10101	0.083923	-0.026398	0.049133	-0.003052	-0.06546	0.006561	-0.048523	0.048981	-0.1297	0.059357	-0.057678	-0.078278	0.16556	-0.07309	-0.031586	-0.012665	-0.02121	-0.006866	0.34943	0.059967	-0.005341	-0.011139
56.465	0.016174	-0.17868	0.20004	0.003204	0.000153	-0.32181	-0.045319	0.006104	0.027924	-0.079956	0.060272	-0.035248	0.3566	0.05127	-0.028687	0.009003	-0.075073	0.011139	-0.15533	0.1149	-0.054321	-0.064545	0.14969	0.001526	-0.032043	-0.003815	-0.003662	-0.006714	0.4277	0.018311	-0.007477	-0.003204
56.466	0.005341	-0.19989	0.15106	0.006714	0.00946	-0.25894	-0.081329	0.023346	0.13184	-0.035248	0.072937	-0.024414	-0.18463	-0.02533	0.008545	0.010529	-0.064087	0.011139	-0.045013	0.13184	-0.048981	-0.072937	0.14679	-0.061493	-0.046234	-0.012512	0.028229	-0.007477	0.3331	0.002899	-0.007019	-0.011292
56.467	0.008087	-0.24139	0.031738	-0.000458	0.005951	-0.21011	-0.065765	0.021973	0.085754	-0.007172	0.056458	-0.012054	-0.46402	-0.17548	0.053253	-0.002441	-0.05188	0.046387	-0.12528	0.14801	-0.047913	-0.041656	0.21408	-0.030975	-0.032959	-0.019226	0.044708	-0.003357	0.24429	0.030823	-0.002899	-0.012512
56.468	0.011139	-0.23758	0.04303	-0.000916	-0.023804	-0.095825	-0.16663	0.024719	-0.062866	0.021667	0.022125	-0.011902	0.30472	-0.22339	0.075378	0.005493	-0.032349	0.11002	-0.089874	0.16663	-0.066223	-0.019989	0.20599	-0.023041	-0.035858	-0.014954	0.055237	-0.006256	0.13519	0.034027	-0.005951	-0.015106
56.469	-0.001984	-0.18051	0.007324	0.012512	-0.01709	-0.059509	-0.19699	0.02243	-0.17731	0.032501	0.12497	-0.004425	0.84335	-0.16403	0.42191	0.007477	-0.037537	0.12314	-0.071106	0.19104	-0.071869	0.03067	0.21362	-0.052948	-0.034943	-0.00946	0.064392	-0.00885	-0.003357	0.045624	-0.007935	-0.010834
